<?xml version="1.0" encoding="UTF-8" standalone="no"?>
<!-- Created with Inkscape (http://www.inkscape.org/) -->

<svg
   xmlns:dc="http://purl.org/dc/elements/1.1/"
   xmlns:cc="http://creativecommons.org/ns#"
   xmlns:rdf="http://www.w3.org/1999/02/22-rdf-syntax-ns#"
   xmlns:svg="http://www.w3.org/2000/svg"
   xmlns="http://www.w3.org/2000/svg"
   xmlns:sodipodi="http://sodipodi.sourceforge.net/DTD/sodipodi-0.dtd"
   xmlns:inkscape="http://www.inkscape.org/namespaces/inkscape"
   width="210mm"
   height="297mm"
   viewBox="0 0 744.09448819 1052.3622047"
   id="svg2"
   version="1.1"
   inkscape:version="0.92.3 (2405546, 2018-03-11)"
   sodipodi:docname="logo.svg">
  <defs
     id="defs4" />
  <sodipodi:namedview
     id="base"
     pagecolor="#ffffff"
     bordercolor="#666666"
     borderopacity="1.0"
     inkscape:pageopacity="0.0"
     inkscape:pageshadow="2"
     inkscape:zoom="0.49497475"
     inkscape:cx="1671.4084"
     inkscape:cy="450.57495"
     inkscape:document-units="px"
     inkscape:current-layer="layer1"
     showgrid="false"
     inkscape:window-width="1920"
     inkscape:window-height="1017"
     inkscape:window-x="-8"
     inkscape:window-y="-8"
     inkscape:window-maximized="1"
     showguides="false" />
  <metadata
     id="metadata7">
    <rdf:RDF>
      <cc:Work
         rdf:about="">
        <dc:format>image/svg+xml</dc:format>
        <dc:type
           rdf:resource="http://purl.org/dc/dcmitype/StillImage" />
        <dc:title />
      </cc:Work>
    </rdf:RDF>
  </metadata>
  <g
     inkscape:label="Ebene 1"
     inkscape:groupmode="layer"
     id="layer1">
    <ellipse
       id="path58"
       style="stroke-width:0.8868404;fill:#ffffff"
       cx="1811.0403"
       cy="526.48828"
       rx="507.9436"
       ry="492.47122" />
  </g>
  <g
     inkscape:groupmode="layer"
     id="layer2"
     inkscape:label="Ebene 2">
    <g
       style=""
       id="g4147"
       transform="translate(-34.285719)">
      <path
         style="fill:#007d43;stroke-width:2.41102529"
         d="M 1801.1819,1057.6044 C 1661.2936,1042.9269 1549.3177,989.29738 1456.4048,892.48579 1379.0653,811.90066 1331.559,713.98302 1313.8177,598.5813 c -5.8436,-38.00718 -5.8436,-111.47662 0,-149.48446 18.5304,-120.52287 67.7425,-218.57067 151.9935,-302.82138 83.9768,-83.974916 183.0951,-133.733481 302.8234,-152.0220872 38.053,-5.8128768 111.5853,-5.7991338 149.4817,0.01895 115.1879,17.7108782 212.1333,64.6795222 293.1442,142.0246072 49.0204,46.80233 82.4152,92.26396 111.9924,152.45786 91.9941,187.22522 67.0708,409.44935 -64.1015,571.55634 -23.3163,28.81323 -67.844,71.72263 -95.6696,92.18397 -72.7324,53.4957 -153.5779,87.2909 -240.5432,100.5428 -24.4523,3.7301 -102.0129,6.6311 -121.7567,4.5607 z m 102.4048,-232.42273 c 84.066,-22.22817 149.2386,-80.98962 178.3791,-160.83138 9.9012,-27.1305 14.568,-54.76473 14.568,-86.26296 0,-45.54135 -9.2977,-82.16434 -31.3261,-123.38938 L 2053.1356,432.101 v -35.93455 -35.935 l 12.6577,-3.60629 c 6.962,-1.98239 17.5391,-4.83676 23.5049,-6.3415 5.9695,-1.50552 12.8029,-3.3041 15.1896,-3.99856 4.0092,-1.16721 4.298,0.77932 3.858,26.06173 -0.2732,15.66746 -2.4084,36.44147 -5.0049,48.69555 -5.6157,26.49345 -4.7195,28.05446 16.0975,28.05446 20.6644,0 21.497,-1.46012 15.9464,-27.94588 -3.1606,-15.08647 -4.4101,-30.45055 -4.196,-51.6173 l 0.3049,-30.13747 27.6988,-7.2333 c 20.8161,-5.43607 27.8956,-8.27497 28.5005,-11.42689 0.4903,-2.56497 -1.3692,-5.13137 -4.7933,-6.61171 -11.6138,-5.01882 -331.9362,-86.83949 -339.7687,-86.78764 -10.0373,0.0611 -339.3084,85.37729 -342.7286,88.79727 -6.2146,6.21242 2.1121,9.6314 58.8283,24.15182 32.2934,8.26761 62.2396,16.1446 66.5505,17.50439 l 7.8345,2.47231 v 34.72669 34.72599 l -8.851,13.84007 c -59.1346,92.44001 -47.5118,221.59232 27.3937,304.38684 36.3801,40.21231 84.6471,67.91211 138.7356,79.61759 30.5994,6.6225 82.8218,5.5201 112.6927,-2.37795 z m -75.8825,-33.48451 c -19.4445,-9.03541 -38.6806,-35.75569 -51.7594,-71.89368 -4.1,-11.33904 -7.081,-20.99381 -6.6184,-21.45556 0.4613,-0.46188 12.1567,-2.08465 25.9895,-3.60638 23.9444,-2.63289 94.223,-1.5165 112.3289,1.78568 l 7.6111,1.38771 -5.6748,16.68483 c -13.3067,39.12021 -33.2823,68.26599 -52.8947,77.17547 -12.1842,5.53538 -16.9338,5.52283 -28.9822,-0.0738 z m -88.0026,-22.18007 c -9.945,-5.40247 -21.8822,-12.67835 -26.5231,-16.16769 -11.9004,-8.9475 -31.3414,-27.2774 -31.3414,-29.55114 0,-2.05831 17.6744,-9.10273 37.856,-15.08449 l 12.5413,-3.71762 5.3256,16.87068 c 2.9259,9.27868 9.8021,26.02145 15.2788,37.20636 5.4767,11.18379 8.8301,20.32007 7.452,20.30109 -1.3798,-0.008 -10.6456,-4.45448 -20.5892,-9.85719 z m 190.714,-8.67494 c 5.1296,-10.21201 12.1213,-26.95761 15.5367,-37.21276 l 6.2097,-18.64501 11.3066,3.39644 c 19.5864,5.88271 39.0338,13.67716 39.0338,15.64484 0,2.89176 -23.6832,23.56085 -38.5778,33.66365 -13.9475,9.4633 -36.8724,21.71914 -40.6243,21.71914 -1.2159,0 1.9848,-8.3553 7.1153,-18.5663 z M 1647.34,675.13129 c -10.1441,-20.74353 -17.6252,-43.03165 -19.7935,-58.97512 -0.8645,-6.35055 -2.0964,-13.44618 -2.7341,-15.76675 -1.0798,-3.91183 2.1812,-4.21956 44.6583,-4.21956 h 45.8234 l 1.2211,10.24671 c 4.4134,37.04396 6.4759,60.30995 5.4388,61.34713 -0.6638,0.66175 -12.1367,4.8707 -25.4936,9.353 -13.3606,4.48242 -27.4874,9.80203 -31.3935,11.8218 -3.9047,2.02044 -7.5706,3.67257 -8.1394,3.67257 -0.573,0 -4.8841,-7.86606 -9.5875,-17.47978 z m 364.9584,11.12575 c -7.2107,-3.2052 -21.9003,-8.56772 -32.6443,-11.91787 l -19.5324,-6.08949 2.9775,-19.76587 c 1.6361,-10.87025 3.0336,-27.08834 3.1047,-36.03941 l 0.132,-16.27454 h 45.8105 45.8095 v 8.05279 c 0,18.78214 -20.802,78.3738 -29.9313,85.74749 -1.5883,1.28117 -7.7819,-0.178 -15.7278,-3.7131 z m -252.0431,-27.7473 c -1.5695,-4.30747 -6.045,-44.49874 -6.0694,-54.50402 l -0.01,-7.83586 h 88.0031 88.0045 v 6.69353 c 0,7.84521 -4.2967,45.0337 -6.1426,53.15143 -1.0517,4.63806 -2.3915,5.3626 -7.8111,4.22895 -20.3168,-4.24932 -76.1238,-6.16472 -108.8707,-3.73734 -19.3046,1.43057 -37.5304,3.20245 -40.5027,3.93706 -3.356,0.83014 -5.8526,0.0953 -6.5903,-1.93375 z m -134.3055,-99.7427 c -1.9536,-1.95266 2.4444,-27.28473 7.9293,-45.67345 5.5029,-18.45756 20.2963,-49.5308 23.5758,-49.5308 1.1442,0 8.0575,2.64298 15.3609,5.87345 7.3026,3.22898 21.2722,8.2654 31.0406,11.1907 9.7701,2.92515 18.1228,5.6161 18.5627,5.97998 0.4435,0.36499 -0.3417,10.78976 -1.7401,23.16686 -1.4006,12.37672 -3.1969,28.74251 -3.992,36.36789 l -1.4435,13.86281 h -44.0287 c -24.2179,0 -44.5872,-0.55679 -45.265,-1.23744 z m 129.2819,-21.06427 c 0.9507,-12.26655 2.4902,-26.64206 3.4249,-31.94682 l 1.7007,-9.64372 20.4129,1.20548 c 31.3272,1.85009 100.1081,1.43251 121.9674,-0.74108 16.5053,-1.64143 19.8006,-1.37279 20.9837,1.71409 2.3815,6.20582 6.9773,54.45131 5.5446,58.18914 -1.1522,3.00223 -14.2734,3.52462 -88.5575,3.52462 h -87.2011 z m 212.4359,19.28806 c -0.5145,-1.65738 -1.5311,-12.77863 -2.2596,-24.71331 -0.7292,-11.93475 -2.0353,-27.23365 -2.9029,-33.99711 l -1.5756,-12.29757 11.4652,-2.88702 c 6.3038,-1.5878 20.7527,-6.63243 32.1052,-11.21003 11.3528,-4.57779 21.4829,-8.323 22.5137,-8.323 1.0304,0 6.1996,8.95154 11.4898,19.89222 9.7254,20.1194 19.4058,54.33905 19.4374,68.71365 l 0.01,7.83582 h -44.6783 c -33.6414,0 -44.9114,-0.74439 -45.6108,-3.01365 z"
         id="path4149"
         inkscape:connector-curvature="0" />
    </g>
  </g>
</svg>
